<?xml version="1.0" encoding="UTF-8"?>
<svg width="18px" height="18px" viewBox="0 0 18 18" version="1.1" xmlns="http://www.w3.org/2000/svg">
    <g stroke="none" stroke-width="1" fill="none" fill-rule="evenodd">
        <path d="M9,0 C4.02943725,0 0,4.02943725 0,9 C0,13.9705627 4.02943725,18 9,18 C13.9705627,18 18,13.9705627 18,9 C18,4.02943725 13.9705627,0 9,0 Z M9,16.2 C5.0235498,16.2 1.8,12.9764502 1.8,9 C1.8,5.0235498 5.0235498,1.8 9,1.8 C12.9764502,1.8 16.2,5.0235498 16.2,9 C16.2,12.9764502 12.9764502,16.2 9,16.2 Z" fill="#4A5568"></path>
        <path d="M9,4.5 C7.34314575,4.5 6,5.84314575 6,7.5 C6,8.5 6.5,9.4 7.2,10 L7.2,12.6 C7.2,13.0418278 7.55817219,13.4 8,13.4 L10,13.4 C10.4418278,13.4 10.8,13.0418278 10.8,12.6 L10.8,10 C11.5,9.4 12,8.5 12,7.5 C12,5.84314575 10.6568542,4.5 9,4.5 Z" fill="#4A5568"></path>
    </g>
</svg> 